<svg id="Component_85_1" data-name="Component 85 – 1" xmlns="http://www.w3.org/2000/svg" width="29" height="29" viewBox="0 0 29 29">
  <rect id="Rectangle_44485" data-name="Rectangle 44485" width="29" height="29" rx="6" fill="none"/>
  <g id="Group_838" data-name="Group 838" transform="translate(8.438 6)">
    <path id="icons8-notification" d="M12.212,4.007A5.477,5.477,0,0,0,7.086,9.522v2.609l-.951,1.914,0,.011a1.272,1.272,0,0,0,1.137,1.791h3.051a2.154,2.154,0,0,0,4.308,0h3.05a1.273,1.273,0,0,0,1.137-1.791l0-.011-.951-1.914V9.385A5.394,5.394,0,0,0,12.212,4.007Zm.051,1.076a4.3,4.3,0,0,1,4.517,4.3v2.872a.539.539,0,0,0,.056.24l1,2.018a.167.167,0,0,1-.163.255H7.267a.167.167,0,0,1-.162-.255h0l1-2.017a.539.539,0,0,0,.056-.24V9.522A4.4,4.4,0,0,1,12.262,5.082Zm-.868,10.764h2.154a1.077,1.077,0,1,1-2.154,0Z" transform="translate(-6.015 -2.001)" fill="#fff"/>
    <g id="Ellipse_40005" data-name="Ellipse 40005" transform="translate(7.563)" fill="#5078e1" stroke="#071741" stroke-width="1.5">
      <circle cx="3" cy="3" r="3" stroke="none"/>
      <circle cx="3" cy="3" r="3.75" fill="none"/>
    </g>
  </g>
</svg>
