<svg xmlns="http://www.w3.org/2000/svg" width="20" height="20" viewBox="0 0 20 20">
  <path id="icons8-schedule_1_" data-name="icons8-schedule (1)" d="M5.476,0a5.476,5.476,0,1,0,5.476,5.476A5.487,5.487,0,0,0,5.476,0Zm0,1.429A4.048,4.048,0,1,1,1.429,5.476,4.037,4.037,0,0,1,5.476,1.429Zm-.011.942a.714.714,0,0,0-.7.725V5.476a.714.714,0,0,0,.209.505l.952.952a.714.714,0,1,0,1.01-1.01L6.19,5.18V3.1a.714.714,0,0,0-.725-.725Zm5.878.486a6.361,6.361,0,0,1,.447,1.429H16.9a1.668,1.668,0,0,1,1.667,1.667v.714H11.79A6.41,6.41,0,0,1,11.343,8.1h7.228V16.9A1.669,1.669,0,0,1,16.9,18.571H5.952A1.668,1.668,0,0,1,4.286,16.9V11.79a6.41,6.41,0,0,1-1.429-.447V16.9a3.1,3.1,0,0,0,3.1,3.1H16.9A3.1,3.1,0,0,0,20,16.9V5.952a3.1,3.1,0,0,0-3.1-3.1ZM11.429,10a1.19,1.19,0,1,0,1.19,1.19A1.19,1.19,0,0,0,11.429,10Zm4.048,0a1.19,1.19,0,1,0,1.19,1.19A1.19,1.19,0,0,0,15.476,10Zm-8.1,4.286a1.19,1.19,0,1,0,1.19,1.19A1.19,1.19,0,0,0,7.381,14.286Zm4.048,0a1.19,1.19,0,1,0,1.19,1.19A1.19,1.19,0,0,0,11.429,14.286Z" fill="#a4b2c1"/>
</svg>
