<svg id="Component_43_4" data-name="Component 43 – 4" xmlns="http://www.w3.org/2000/svg" width="28" height="28" viewBox="0 0 28 28">
  <rect id="Rectangle_44485" data-name="Rectangle 44485" width="28" height="28" rx="6" fill="none"/>
  <path id="icons8-eye_5_" data-name="icons8-eye (5)" d="M9,4c-5.818,0-8,6-8,6s2.182,6,8,6,8-6,8-6S14.818,4,9,4ZM9,5.5c3.837,0,5.778,3.2,6.406,4.5-.629,1.288-2.584,4.5-6.406,4.5-3.837,0-5.778-3.2-6.406-4.5C3.224,8.715,5.178,5.5,9,5.5ZM9,7a3,3,0,0,0,0,6A3,3,0,0,0,9,7ZM9,8.5A1.5,1.5,0,1,1,7.545,10,1.477,1.477,0,0,1,9,8.5Z" transform="translate(5 4)" fill="#98a0ac"/>
</svg>
