<svg xmlns="http://www.w3.org/2000/svg" width="19.83" height="14.872" viewBox="0 0 19.83 14.872">
  <g id="visibility" transform="translate(0 -64.008)">
    <g id="Group_3702" data-name="Group 3702" transform="translate(7.457 68.986)">
      <g id="Group_3701" data-name="Group 3701" transform="translate(0 0)">
        <path id="Path_875" data-name="Path 875" d="M197.344,192.663a.413.413,0,0,0-.584.584,2.478,2.478,0,1,1-3.5,3.5.413.413,0,0,0-.584.584,3.3,3.3,0,1,0,4.673-4.673Z" transform="translate(-192.55 -192.542)" fill="#a4b2c1"/>
      </g>
    </g>
    <g id="Group_3704" data-name="Group 3704" transform="translate(6.61 68.139)">
      <g id="Group_3703" data-name="Group 3703" transform="translate(0 0)">
        <path id="Path_876" data-name="Path 876" d="M174.549,170.716a3.272,3.272,0,0,0-3.881,3.248,3.234,3.234,0,0,0,.058.576.414.414,0,0,0,.406.341.366.366,0,0,0,.073-.007.414.414,0,0,0,.335-.478,2.4,2.4,0,0,1-.045-.432,2.449,2.449,0,0,1,2.911-2.435.413.413,0,0,0,.144-.813Z" transform="translate(-170.668 -170.659)" fill="#a4b2c1"/>
      </g>
    </g>
    <g id="Group_3706" data-name="Group 3706" transform="translate(5.168 66.814)">
      <g id="Group_3705" data-name="Group 3705" transform="translate(0 0)">
        <path id="Path_877" data-name="Path 877" d="M148,140.824a20.07,20.07,0,0,0-5.411-4.316.413.413,0,0,0-.379.735,19.415,19.415,0,0,1,4.92,3.849c-.985,1.067-4.861,4.958-8.947,4.958a9.526,9.526,0,0,1-4.154-1,.413.413,0,0,0-.359.744,10.331,10.331,0,0,0,4.513,1.078c5.091,0,9.627-5.291,9.818-5.517A.413.413,0,0,0,148,140.824Z" transform="translate(-133.435 -136.461)" fill="#a4b2c1"/>
      </g>
    </g>
    <g id="Group_3708" data-name="Group 3708" transform="translate(0 65.66)">
      <g id="Group_3707" data-name="Group 3707" transform="translate(0 0)">
        <path id="Path_878" data-name="Path 878" d="M12.626,107.135a8.531,8.531,0,0,0-2.711-.476c-5.091,0-9.627,5.291-9.818,5.517a.413.413,0,0,0-.023.5,15.338,15.338,0,0,0,3.79,3.593.41.41,0,0,0,.572-.117.412.412,0,0,0-.116-.572,15.109,15.109,0,0,1-3.374-3.119c.951-1.033,4.853-4.98,8.968-4.98a7.733,7.733,0,0,1,2.447.432.407.407,0,0,0,.523-.259A.412.412,0,0,0,12.626,107.135Z" transform="translate(0 -106.659)" fill="#a4b2c1"/>
      </g>
    </g>
    <g id="Group_3710" data-name="Group 3710" transform="translate(2.478 64.008)">
      <g id="Group_3709" data-name="Group 3709" transform="translate(0 0)">
        <path id="Path_879" data-name="Path 879" d="M78.747,64.129a.413.413,0,0,0-.584,0L64.117,78.175a.413.413,0,0,0,.584.584L78.747,64.713A.413.413,0,0,0,78.747,64.129Z" transform="translate(-63.996 -64.008)" fill="#a4b2c1"/>
      </g>
    </g>
  </g>
</svg>
