<svg xmlns="http://www.w3.org/2000/svg" width="24" height="24" viewBox="0 0 24 24">
  <g id="Leads" transform="translate(-1609 -1003)">
    <rect id="Rectangle_33" data-name="Rectangle 33" width="24" height="24" transform="translate(1609 1003)" fill="none"/>
    <g id="customer" transform="translate(1613 975)">
      <path id="Path_93408" data-name="Path 93408" d="M171.719,38.437A2.719,2.719,0,1,0,169,35.719,2.722,2.722,0,0,0,171.719,38.437Zm0-4.5a1.781,1.781,0,1,1-1.781,1.781A1.783,1.783,0,0,1,171.719,33.938Z" transform="translate(-163.719)" fill="#fff"/>
      <path id="Path_93409" data-name="Path 93409" d="M378.719,100.437A1.719,1.719,0,1,0,377,98.719,1.721,1.721,0,0,0,378.719,100.437Zm0-2.5a.781.781,0,1,1-.781.781A.782.782,0,0,1,378.719,97.937Z" transform="translate(-365.219 -62)" fill="#fff"/>
      <path id="Path_93410" data-name="Path 93410" d="M13.878,241h-.725a2.125,2.125,0,0,0-1.928,1.23A3.773,3.773,0,0,0,8.437,241H7.563a3.773,3.773,0,0,0-2.788,1.23A2.125,2.125,0,0,0,2.847,241H2.122A2.118,2.118,0,0,0,0,243.109v3.413a.918.918,0,0,0,.919.916H3.786a1.1,1.1,0,0,0,1.09,1h6.249a1.1,1.1,0,0,0,1.09-1h2.834a.951.951,0,0,0,.952-.948v-3.38A2.118,2.118,0,0,0,13.878,241ZM.938,243.109a1.179,1.179,0,0,1,1.184-1.172h.725a1.179,1.179,0,0,1,1.184,1.172v.321a7.789,7.789,0,0,0-.25,3.07H.938Zm10.344,4.234a.157.157,0,0,1-.157.157H4.876a.157.157,0,0,1-.157-.157v-2.561a2.848,2.848,0,0,1,2.844-2.844h.874a2.848,2.848,0,0,1,2.844,2.844Zm3.781-.854c0,.016.175.011-2.844.011,0-1.77.065-2.251-.25-3.07v-.321a1.179,1.179,0,0,1,1.184-1.172h.725a1.179,1.179,0,0,1,1.184,1.172Z" transform="translate(0 -201.5)" fill="#fff"/>
      <path id="Path_93411" data-name="Path 93411" d="M26.719,100.437A1.719,1.719,0,1,0,25,98.719,1.721,1.721,0,0,0,26.719,100.437Zm0-2.5a.781.781,0,1,1-.781.781A.782.782,0,0,1,26.719,97.937Z" transform="translate(-24.219 -62)" fill="#fff"/>
    </g>
  </g>
</svg>
